<?xml version="1.0"?>
<svg xmlns="http://www.w3.org/2000/svg" height="512px" viewBox="-140 0 512 512" width="512px"><path d="m118.933594 159.097656h-83.769532v100.179688h83.769532zm-68.769532 15h53.769532v13.394532h-53.769532zm0 28.390625h53.769532v13.394531h-53.769532zm53.769532 41.785157h-53.769532v-13.390626h53.769532zm0 0" fill="#40b7b5"/><path d="m134.15625 360.050781h31.03125v57.472657c0 15.035156-12.230469 27.265624-27.265625 27.265624-15.039063 0-27.269531-12.230468-27.269531-27.265624v-145.75h-15v145.75c0 23.304687 18.960937 42.265624 42.269531 42.265624 23.304687 0 42.265625-18.960937 42.265625-42.265624v-72.472657h-15.066406l52.277344-66.167969v138.640626c0 43.824218-35.652344 79.476562-79.476563 79.476562s-79.480469-35.652344-79.480469-79.476562v-145.75h-15v145.75c0 52.09375 42.382813 94.476562 94.480469 94.476562 52.09375 0 94.476563-42.382812 94.476563-94.476562v-181.824219zm0 0" fill="#40b7b5"/><path d="m69.550781 0h15v89.667969h-15zm0 0" fill="#40b7b5"/><path d="m51.570312 73.25c-6.054687 6.476562-9.386718 14.929688-9.386718 23.800781 0 19.222657 15.640625 34.863281 34.867187 34.863281 19.222657 0 34.863281-15.640624 34.863281-34.863281 0-8.871093-3.332031-17.324219-9.386718-23.800781l-10.957032 10.238281c3.445313 3.691407 5.34375 8.507813 5.34375 13.5625 0 10.953125-8.910156 19.863281-19.863281 19.863281-10.957031 0-19.867187-8.910156-19.867187-19.863281 0-5.054687 1.898437-9.871093 5.34375-13.5625zm0 0" fill="#40b7b5"/><path d="m139.097656 97.050781c0 16.75-6.574218 32.449219-18.507812 44.207031l10.523437 10.6875c14.820313-14.597656 22.984375-34.09375 22.984375-54.894531 0-16.910156-5.375-32.957031-15.542968-46.414062-9.832032-13.011719-23.808594-22.742188-39.355469-27.402344l-4.304688 14.371094c26.027344 7.796875 44.203125 32.242187 44.203125 59.445312zm0 0" fill="#40b7b5"/><path d="m59.203125 37.605469-4.308594-14.371094c-15.542969 4.660156-29.519531 14.394531-39.351562 27.402344-10.167969 13.457031-15.542969 29.503906-15.542969 46.414062 0 20.042969 7.660156 39.027344 21.566406 53.460938l10.800782-10.410157c-11.199219-11.621093-17.367188-26.910156-17.367188-43.050781 0-27.203125 18.175781-51.648437 44.203125-59.445312zm0 0" fill="#40b7b5"/><path d="m77.050781 152.804688v-15c18.625 0 34.863281-12.605469 39.484375-30.648438l14.53125 3.726562c-6.324218 24.679688-28.535156 41.921876-54.015625 41.921876zm55.699219-53.332032-14.984375-.652344c.023437-.585937.039063-1.175781.039063-1.769531-.003907-3.652343-.488282-7.277343-1.445313-10.765625l14.46875-3.964844c1.308594 4.777344 1.976563 9.734376 1.976563 14.726563 0 .8125-.019532 1.621094-.054688 2.425781zm-19.449219-21.03125c-1.9375-3.757812-4.445312-7.1875-7.449219-10.195312l10.605469-10.605469c4.101563 4.101563 7.523438 8.789063 10.175781 13.925781zm0 0" fill="#40b7b5"/><path d="m137.921875 485.953125v-15c29.460937 0 53.429687-23.96875 53.429687-53.429687v-37.34375h15v37.34375c0 37.730468-30.699218 68.429687-68.429687 68.429687zm68.429687-115.773437h-15v-15h15zm0-25h-15v-15h15zm0 0" fill="#40b7b5"/><path d="m84.492188 417.523438h-15v-89.699219h15zm0-99.699219h-15v-15h15zm0-25h-15v-15h15zm0 0" fill="#40b7b5"/></svg>
