<?xml version="1.0" encoding="iso-8859-1"?>
<!-- Generator: Adobe Illustrator 19.0.0, SVG Export Plug-In . SVG Version: 6.00 Build 0)  -->
<svg xmlns="http://www.w3.org/2000/svg" xmlns:xlink="http://www.w3.org/1999/xlink" version="1.1" id="Capa_1" x="0px" y="0px" viewBox="0 0 512 512" style="enable-background:new 0 0 512 512;" xml:space="preserve" width="512px" height="512px">
<g>
	<g>
		<path d="M65.092,0v512h381.816V0H65.092z M416.908,482H95.092V30h321.816V482z" fill="#40b7b5"/>
	</g>
</g>
<g>
	<g>
		<path d="M296.575,60v90.333h90.333V60H296.575z M356.908,120.333h-30.333V90h30.333V120.333z" fill="#40b7b5"/>
	</g>
</g>
<g>
	<g>
		<path d="M125.092,361.667V452h90.333v-90.333H125.092z M185.425,422L185.425,422h-30.333v-30.333h30.333V422z" fill="#40b7b5"/>
	</g>
</g>
<g>
	<g>
		<rect x="125.09" y="60" width="141.82" height="30" fill="#40b7b5"/>
	</g>
</g>
<g>
	<g>
		<rect x="125.09" y="120.33" width="141.82" height="30" fill="#40b7b5"/>
	</g>
</g>
<g>
	<g>
		<rect x="245.09" y="361.67" width="141.82" height="30" fill="#40b7b5"/>
	</g>
</g>
<g>
	<g>
		<rect x="245.09" y="422" width="141.82" height="30" fill="#40b7b5"/>
	</g>
</g>
<g>
	<g>
		<rect x="125.09" y="301.33" width="261.81" height="30" fill="#40b7b5"/>
	</g>
</g>
<g>
	<g>
		<rect x="125.09" y="241" width="261.81" height="30" fill="#40b7b5"/>
	</g>
</g>
<g>
	<g>
		<rect x="125.09" y="180.67" width="261.81" height="30" fill="#40b7b5"/>
	</g>
</g>
<g>
</g>
<g>
</g>
<g>
</g>
<g>
</g>
<g>
</g>
<g>
</g>
<g>
</g>
<g>
</g>
<g>
</g>
<g>
</g>
<g>
</g>
<g>
</g>
<g>
</g>
<g>
</g>
<g>
</g>
</svg>
